<svg xmlns="http://www.w3.org/2000/svg" xmlns:xlink="http://www.w3.org/1999/xlink" preserveAspectRatio="xMidYMid" width="20" height="13" viewBox="0 0 20 13">
  <defs>
    <style>
      .cls-1 {
        fill: #e6e6e6;
        fill-rule: evenodd;
      }
    </style>
  </defs>
  <path d="M19.727,5.867 L13.776,0.237 C13.413,-0.107 12.824,-0.107 12.461,0.237 C12.097,0.580 12.097,1.137 12.461,1.481 L16.825,5.609 L0.930,5.609 C0.416,5.609 -0.000,6.004 -0.000,6.489 C-0.000,6.975 0.416,7.369 0.930,7.369 L16.825,7.369 L12.461,11.498 C12.098,11.841 12.098,12.398 12.461,12.742 C12.642,12.914 12.880,12.999 13.118,12.999 C13.356,12.999 13.594,12.914 13.776,12.742 L19.727,7.112 C20.091,6.768 20.091,6.211 19.727,5.867 Z" class="cls-1"/>
</svg>
