<svg xmlns="http://www.w3.org/2000/svg" xmlns:xlink="http://www.w3.org/1999/xlink" preserveAspectRatio="xMidYMid" width="24" height="24" viewBox="0 0 24 24">
  <path d="M23.725,23.979 C23.683,23.994 23.641,24.000 23.599,24.000 C23.431,24.000 23.275,23.894 23.220,23.726 C23.189,23.638 22.433,21.520 19.502,20.787 C19.288,20.734 19.158,20.517 19.211,20.302 C19.265,20.088 19.481,19.957 19.696,20.012 C23.070,20.855 23.943,23.367 23.978,23.473 C24.048,23.683 23.935,23.909 23.725,23.979 ZM21.199,6.399 C20.717,6.399 19.999,6.079 19.999,5.199 C19.999,4.429 20.548,3.725 20.799,3.443 L20.799,2.055 L12.051,3.196 C12.034,3.198 12.016,3.199 11.999,3.199 C11.982,3.199 11.965,3.198 11.948,3.196 L2.748,1.996 C2.548,1.970 2.399,1.800 2.399,1.599 C2.399,1.398 2.548,1.228 2.748,1.202 L11.948,0.002 C11.982,-0.002 12.016,-0.002 12.051,0.002 L21.251,1.202 C21.272,1.205 21.290,1.215 21.309,1.222 C21.330,1.227 21.351,1.232 21.371,1.241 C21.397,1.254 21.420,1.271 21.442,1.290 C21.458,1.302 21.475,1.312 21.489,1.327 C21.511,1.350 21.526,1.377 21.542,1.405 C21.551,1.421 21.562,1.433 21.569,1.450 C21.588,1.496 21.599,1.546 21.599,1.599 L21.599,3.443 C21.850,3.725 22.399,4.429 22.399,5.199 C22.399,6.079 21.682,6.399 21.199,6.399 ZM11.999,0.803 L5.892,1.599 L11.999,2.396 L18.107,1.599 L11.999,0.803 ZM21.199,4.224 C21.003,4.497 20.799,4.867 20.799,5.199 C20.799,5.518 21.015,5.593 21.199,5.599 C21.383,5.593 21.599,5.518 21.599,5.199 C21.599,4.867 21.395,4.497 21.199,4.224 ZM4.787,20.302 C4.841,20.517 4.710,20.734 4.496,20.787 C1.543,21.525 0.786,23.704 0.779,23.726 C0.723,23.894 0.567,24.000 0.399,24.000 C0.357,24.000 0.315,23.994 0.273,23.979 C0.063,23.909 -0.050,23.683 0.020,23.473 C0.055,23.367 0.928,20.855 4.302,20.012 C4.516,19.957 4.734,20.088 4.787,20.302 ZM17.999,2.799 C18.220,2.799 18.399,2.978 18.399,3.199 L18.399,5.999 C18.399,6.151 18.313,6.289 18.178,6.357 C18.076,6.407 15.651,7.599 11.999,7.599 C8.347,7.599 5.922,6.407 5.820,6.357 C5.685,6.289 5.599,6.151 5.599,5.999 L5.599,3.199 C5.599,2.978 5.778,2.799 5.999,2.799 C6.220,2.799 6.399,2.978 6.399,3.199 L6.399,5.741 C7.061,6.021 9.154,6.799 11.999,6.799 C14.844,6.799 16.937,6.021 17.599,5.741 L17.599,3.199 C17.599,2.978 17.778,2.799 17.999,2.799 ZM3.971,18.948 C3.889,19.153 3.655,19.252 3.451,19.171 C3.246,19.089 3.146,18.856 3.228,18.651 C3.236,18.632 3.999,16.696 3.999,14.799 L3.999,11.599 C3.999,8.191 5.746,7.279 5.821,7.242 C5.944,7.180 6.091,7.186 6.209,7.259 C6.327,7.332 6.399,7.460 6.399,7.599 L6.399,9.199 C6.399,9.216 6.403,9.237 6.404,9.254 C6.390,9.153 6.413,9.047 6.479,8.959 C6.612,8.783 6.863,8.747 7.039,8.879 L8.059,9.644 C8.211,9.157 8.662,8.799 9.199,8.799 L10.799,8.799 C11.461,8.799 11.999,9.338 11.999,9.999 C11.999,9.338 12.538,8.799 13.199,8.799 L14.799,8.799 C15.337,8.799 15.787,9.157 15.939,9.644 L16.959,8.879 C17.136,8.746 17.387,8.783 17.519,8.959 C17.585,9.047 17.609,9.153 17.595,9.254 C17.595,9.238 17.599,9.216 17.599,9.199 L17.599,7.599 C17.599,7.460 17.671,7.332 17.789,7.259 C17.907,7.186 18.054,7.180 18.178,7.242 C18.252,7.279 19.999,8.191 19.999,11.599 L19.999,14.799 C19.999,16.696 20.763,18.632 20.771,18.651 C20.852,18.856 20.753,19.089 20.547,19.171 C20.499,19.190 20.449,19.199 20.399,19.199 C20.240,19.199 20.090,19.104 20.027,18.948 C19.994,18.864 19.199,16.853 19.199,14.799 L19.199,11.599 C19.199,9.978 18.777,9.036 18.399,8.517 L18.399,9.199 C18.399,10.916 17.140,14.213 16.757,14.978 C16.270,15.952 14.140,18.400 11.999,18.400 C9.858,18.400 7.728,15.952 7.241,14.978 C6.859,14.213 5.599,10.916 5.599,9.199 L5.599,8.517 C5.222,9.035 4.799,9.977 4.799,11.599 L4.799,14.799 C4.799,16.853 4.005,18.864 3.971,18.948 ZM11.199,10.399 L11.199,9.999 C11.199,9.779 11.020,9.599 10.799,9.599 L9.199,9.599 C8.978,9.599 8.799,9.779 8.799,9.999 L8.799,10.399 C8.799,10.841 9.158,11.199 9.599,11.199 L10.399,11.199 C10.840,11.199 11.199,10.841 11.199,10.399 L11.199,10.399 ZM15.199,9.999 C15.199,9.779 15.020,9.599 14.799,9.599 L13.199,9.599 C12.978,9.599 12.799,9.779 12.799,9.999 L12.799,10.399 C12.799,10.841 13.158,11.199 13.599,11.199 L14.399,11.199 C14.840,11.199 15.199,10.841 15.199,10.399 L15.199,9.999 ZM7.957,14.621 C8.316,15.339 10.214,17.600 11.999,17.600 C13.784,17.600 15.682,15.339 16.041,14.621 C16.437,13.829 17.569,10.788 17.595,9.257 C17.580,9.358 17.527,9.453 17.439,9.519 L15.977,10.615 C15.871,11.395 15.207,12.000 14.399,12.000 L13.599,12.000 C12.717,12.000 11.999,11.282 11.999,10.399 C11.999,11.282 11.282,12.000 10.399,12.000 L9.599,12.000 C8.791,12.000 8.128,11.395 8.021,10.615 L6.559,9.519 C6.471,9.453 6.419,9.358 6.404,9.257 C6.430,10.788 7.561,13.829 7.957,14.621 ZM11.078,14.513 C11.099,14.532 11.400,14.799 11.999,14.799 C12.607,14.799 12.908,14.524 12.921,14.512 C13.081,14.363 13.332,14.367 13.484,14.524 C13.636,14.681 13.636,14.928 13.482,15.082 C13.429,15.135 12.938,15.600 11.999,15.600 C11.060,15.600 10.569,15.135 10.516,15.082 C10.360,14.926 10.360,14.673 10.516,14.517 C10.672,14.361 10.922,14.360 11.078,14.513 ZM5.648,20.224 C5.655,20.208 5.657,20.192 5.666,20.177 C5.671,20.171 5.678,20.168 5.683,20.161 C5.699,20.140 5.718,20.123 5.738,20.106 C5.759,20.087 5.779,20.069 5.803,20.056 C5.809,20.051 5.813,20.045 5.821,20.041 L7.420,19.242 C7.549,19.177 7.702,19.187 7.821,19.267 L10.221,20.867 C10.332,20.941 10.399,21.066 10.399,21.199 L10.399,22.617 C10.639,22.806 11.229,23.199 11.999,23.199 C12.777,23.199 13.361,22.808 13.599,22.618 L13.599,21.199 C13.599,21.066 13.666,20.941 13.777,20.867 L16.178,19.267 C16.297,19.187 16.449,19.177 16.578,19.242 L18.178,20.041 C18.186,20.046 18.190,20.052 18.197,20.056 C18.220,20.069 18.238,20.086 18.257,20.104 C18.279,20.122 18.300,20.140 18.317,20.162 C18.321,20.168 18.327,20.172 18.332,20.177 C18.341,20.191 18.342,20.207 18.350,20.221 C18.363,20.248 18.375,20.273 18.383,20.302 C18.389,20.326 18.390,20.348 18.392,20.372 C18.394,20.399 18.395,20.425 18.392,20.452 C18.388,20.478 18.380,20.502 18.371,20.528 C18.366,20.544 18.366,20.562 18.357,20.578 C18.354,20.586 18.346,20.590 18.342,20.598 C18.329,20.620 18.312,20.638 18.296,20.658 C18.277,20.679 18.259,20.700 18.237,20.717 C18.231,20.721 18.228,20.728 18.221,20.732 L15.821,22.332 C15.753,22.378 15.676,22.400 15.600,22.400 C15.470,22.400 15.343,22.337 15.266,22.222 C15.144,22.038 15.193,21.789 15.377,21.667 L17.204,20.449 L16.428,20.061 L14.399,21.413 L14.399,22.800 C14.399,22.906 14.357,23.008 14.282,23.083 C14.244,23.120 13.349,24.000 11.999,24.000 C10.649,24.000 9.754,23.120 9.716,23.083 C9.641,23.008 9.599,22.906 9.599,22.800 L9.599,21.413 L7.570,20.061 L6.794,20.449 L8.621,21.667 C8.805,21.789 8.855,22.038 8.732,22.222 C8.655,22.337 8.528,22.400 8.399,22.400 C8.323,22.400 8.246,22.378 8.177,22.332 L5.777,20.732 C5.771,20.728 5.767,20.721 5.761,20.716 C5.740,20.700 5.723,20.680 5.705,20.660 C5.687,20.639 5.669,20.620 5.656,20.597 C5.652,20.590 5.645,20.586 5.641,20.578 C5.634,20.563 5.634,20.546 5.629,20.530 C5.619,20.504 5.610,20.478 5.607,20.450 C5.604,20.425 5.605,20.401 5.606,20.375 C5.608,20.350 5.610,20.326 5.616,20.300 C5.623,20.273 5.635,20.249 5.648,20.224 Z" class="cls-1"/>
</svg>
