<svg xmlns="http://www.w3.org/2000/svg" xmlns:xlink="http://www.w3.org/1999/xlink" preserveAspectRatio="xMidYMid" width="43" height="50" viewBox="0 0 43 50">
  <defs>
    <style>
      .cls-1 {
        fill: #fff;
        fill-rule: evenodd;
      }
    </style>
  </defs>
  <path d="M38.865,49.999 L4.135,49.999 C1.855,49.999 -0.000,48.130 -0.000,45.833 L-0.000,4.166 C-0.000,1.868 1.855,-0.001 4.135,-0.001 C4.591,-0.001 4.961,0.373 4.961,0.833 C4.961,1.293 4.591,1.666 4.135,1.666 C2.767,1.666 1.654,2.788 1.654,4.166 L1.654,45.833 C1.654,47.211 2.767,48.333 4.135,48.333 L38.865,48.333 C40.257,48.333 41.346,47.234 41.346,45.833 L41.346,13.333 L33.904,13.333 C31.624,13.333 29.769,11.463 29.769,9.166 L29.769,5.000 C29.769,4.539 30.139,4.166 30.596,4.166 C31.053,4.166 31.423,4.539 31.423,5.000 L31.423,9.166 C31.423,10.544 32.536,11.666 33.904,11.666 L42.173,11.666 C42.630,11.666 43.000,12.039 43.000,12.500 L43.000,45.832 C43.000,48.169 41.184,49.999 38.865,49.999 ZM9.096,35.000 L14.058,35.000 C14.514,35.000 14.885,35.373 14.885,35.833 C14.885,36.293 14.514,36.666 14.058,36.666 L9.096,36.666 C8.640,36.666 8.269,36.293 8.269,35.833 C8.269,35.373 8.640,35.000 9.096,35.000 ZM19.019,41.666 L9.096,41.666 C8.640,41.666 8.269,41.293 8.269,40.833 C8.269,40.373 8.640,40.000 9.096,40.000 L19.019,40.000 C19.476,40.000 19.846,40.373 19.846,40.833 C19.846,41.293 19.476,41.666 19.019,41.666 ZM16.538,35.833 C16.538,35.373 16.909,35.000 17.365,35.000 L25.635,35.000 C26.092,35.000 26.461,35.373 26.461,35.833 C26.461,36.293 26.092,36.666 25.635,36.666 L17.365,36.666 C16.909,36.666 16.538,36.293 16.538,35.833 ZM30.596,41.666 L22.327,41.666 C21.870,41.666 21.500,41.293 21.500,40.833 C21.500,40.373 21.870,40.000 22.327,40.000 L30.596,40.000 C31.053,40.000 31.423,40.373 31.423,40.833 C31.423,41.293 31.053,41.666 30.596,41.666 ZM33.904,36.666 L28.942,36.666 C28.485,36.666 28.115,36.293 28.115,35.833 C28.115,35.373 28.485,35.000 28.942,35.000 L33.904,35.000 C34.361,35.000 34.731,35.373 34.731,35.833 C34.731,36.293 34.361,36.666 33.904,36.666 ZM27.288,19.999 L33.904,19.999 C34.361,19.999 34.731,20.372 34.731,20.833 C34.731,21.293 34.361,21.666 33.904,21.666 L27.288,21.666 C26.831,21.666 26.461,21.293 26.461,20.833 C26.461,20.372 26.831,19.999 27.288,19.999 ZM26.461,25.833 C26.461,26.292 26.092,26.666 25.635,26.666 L21.500,26.666 C21.044,26.666 20.673,26.292 20.673,25.833 C20.673,25.373 21.044,24.999 21.500,24.999 L25.635,24.999 C26.092,24.999 26.461,25.373 26.461,25.833 ZM20.673,19.999 L23.981,19.999 C24.438,19.999 24.808,20.372 24.808,20.833 C24.808,21.293 24.438,21.666 23.981,21.666 L20.673,21.666 C20.217,21.666 19.846,21.293 19.846,20.833 C19.846,20.372 20.217,19.999 20.673,19.999 ZM32.250,26.666 L28.942,26.666 C28.485,26.666 28.115,26.293 28.115,25.833 C28.115,25.373 28.485,25.000 28.942,25.000 L32.250,25.000 C32.707,25.000 33.077,25.373 33.077,25.833 C33.077,26.293 32.707,26.666 32.250,26.666 ZM32.250,31.666 L19.846,31.666 C19.390,31.666 19.019,31.293 19.019,30.832 C19.019,30.373 19.390,29.999 19.846,29.999 L32.250,29.999 C32.707,29.999 33.077,30.373 33.077,30.832 C33.077,31.293 32.707,31.666 32.250,31.666 ZM38.865,9.999 C38.654,9.999 38.442,9.918 38.281,9.755 L30.254,1.666 L8.269,1.666 L8.269,4.234 C9.243,3.664 10.371,3.333 11.577,3.333 C15.224,3.333 18.192,6.323 18.192,9.999 C18.192,13.675 15.224,16.666 11.577,16.666 C10.017,16.666 8.584,16.116 7.452,15.203 C7.097,15.557 6.615,16.261 6.615,17.499 C6.615,18.737 7.097,19.442 7.452,19.796 C8.584,18.883 10.017,18.333 11.577,18.333 C15.224,18.333 18.192,21.324 18.192,24.999 C18.192,28.675 15.224,31.666 11.577,31.666 C10.371,31.666 9.243,31.334 8.269,30.764 L8.269,32.499 C8.269,32.959 7.899,33.333 7.442,33.333 C6.986,33.333 6.615,32.959 6.615,32.499 L6.615,29.394 C5.589,28.219 4.961,26.684 4.961,24.999 C4.961,23.493 5.465,22.108 6.304,20.990 C5.700,20.394 4.961,19.300 4.961,17.499 C4.961,15.699 5.700,14.604 6.304,14.009 C5.465,12.891 4.961,11.505 4.961,9.999 C4.961,8.315 5.589,6.779 6.615,5.604 L6.615,0.832 C6.615,0.373 6.986,-0.001 7.442,-0.001 L30.596,-0.001 C30.816,-0.001 31.026,0.087 31.181,0.243 L39.450,8.577 C39.773,8.903 39.773,9.429 39.450,9.755 C39.289,9.918 39.077,9.999 38.865,9.999 ZM11.577,29.999 C14.313,29.999 16.538,27.757 16.538,24.999 C16.538,22.242 14.313,19.999 11.577,19.999 C8.841,19.999 6.615,22.242 6.615,24.999 C6.615,27.757 8.841,29.999 11.577,29.999 ZM6.615,9.999 C6.615,12.757 8.841,14.999 11.577,14.999 C14.313,14.999 16.538,12.757 16.538,9.999 C16.538,7.242 14.313,5.000 11.577,5.000 C8.841,5.000 6.615,7.242 6.615,9.999 ZM13.077,7.027 C13.732,7.364 14.264,7.918 14.575,8.590 C14.768,9.007 14.589,9.503 14.176,9.698 C14.063,9.751 13.944,9.776 13.826,9.776 C13.515,9.776 13.217,9.598 13.077,9.295 C12.921,8.958 12.654,8.680 12.325,8.512 C11.918,8.302 11.757,7.801 11.964,7.391 C12.172,6.981 12.670,6.820 13.077,7.027 ZM13.077,22.003 C13.732,22.341 14.264,22.896 14.575,23.567 C14.768,23.984 14.589,24.479 14.176,24.674 C14.063,24.728 13.944,24.753 13.826,24.753 C13.515,24.753 13.217,24.575 13.077,24.272 C12.921,23.936 12.654,23.657 12.325,23.488 C11.918,23.279 11.757,22.778 11.964,22.368 C12.172,21.958 12.670,21.795 13.077,22.003 Z" class="cls-1"/>
</svg>
