<svg xmlns="http://www.w3.org/2000/svg" xmlns:xlink="http://www.w3.org/1999/xlink" preserveAspectRatio="xMidYMid" width="50" height="47" viewBox="0 0 50 47">
  <defs>
    <style>
      .cls-1 {
        fill: #fff;
        filter: url(#color-overlay-1);
        fill-rule: evenodd;
      }
    </style>

    <filter id="color-overlay-1" filterUnits="userSpaceOnUse">
      <feFlood flood-color="#fff"/>
      <feComposite operator="in" in2="SourceGraphic"/>
      <feBlend in2="SourceGraphic" result="solidFill"/>
    </filter>
  </defs>
  <path d="M49.167,46.999 L30.833,46.999 L30.833,46.999 L27.500,46.999 L22.500,46.999 L19.167,46.999 C19.167,46.999 19.167,46.999 19.167,46.999 C19.167,46.999 19.167,46.999 19.167,46.999 L0.833,46.999 C0.333,46.999 -0.000,46.663 -0.000,46.160 L-0.000,42.803 C-0.000,42.299 0.333,41.964 0.833,41.964 L3.333,41.964 L3.333,18.464 C3.333,17.960 3.667,17.624 4.167,17.624 L5.000,17.624 L5.000,15.106 C5.000,14.603 5.333,14.267 5.833,14.267 L15.833,14.267 C16.333,14.267 16.667,14.603 16.667,15.106 L16.667,17.624 L18.333,17.624 L18.333,15.106 C18.333,14.854 18.417,14.603 18.583,14.435 L24.167,9.615 L24.167,5.874 L24.167,0.839 C24.167,0.335 24.500,-0.001 25.000,-0.001 L31.667,-0.001 C32.167,-0.001 32.500,0.335 32.500,0.839 L32.500,5.874 C32.500,6.378 32.167,6.714 31.667,6.714 L25.833,6.714 L25.833,9.687 L31.333,14.435 C31.500,14.603 31.583,14.854 31.583,15.106 L31.583,17.624 L33.333,17.624 L33.333,15.106 C33.333,14.603 33.667,14.267 34.167,14.267 L44.167,14.267 C44.667,14.267 45.000,14.603 45.000,15.106 L45.000,17.624 L45.750,17.624 C46.250,17.624 46.583,17.960 46.583,18.464 L46.583,41.964 L49.167,41.964 C49.667,41.964 50.000,42.300 50.000,42.803 L50.000,46.160 C50.000,46.663 49.667,46.999 49.167,46.999 ZM23.333,45.321 L26.667,45.321 L26.667,45.321 L26.667,36.089 C26.667,35.165 25.917,34.410 25.000,34.410 C24.083,34.410 23.333,35.165 23.333,36.089 L23.333,45.321 ZM4.167,43.642 L1.667,43.642 L1.667,45.321 L18.333,45.321 L18.333,45.321 L18.333,43.642 L4.167,43.642 ZM15.000,15.946 L6.667,15.946 L6.667,17.624 L15.000,17.624 L15.000,15.946 ZM25.000,11.246 L20.000,15.526 L20.000,17.624 L30.000,17.624 L30.000,15.526 L25.000,11.246 ZM30.833,5.035 L30.833,1.678 L25.833,1.678 L25.833,5.035 L30.833,5.035 ZM43.333,15.946 L35.000,15.946 L35.000,17.624 L43.333,17.624 L43.333,15.946 ZM45.000,19.303 L44.167,19.303 L34.167,19.303 L30.833,19.303 L30.833,19.303 L19.167,19.303 L15.833,19.303 L5.833,19.303 L5.000,19.303 L5.000,41.964 L19.167,41.964 C19.667,41.964 20.000,42.299 20.000,42.803 L20.000,45.321 L21.667,45.321 L21.667,36.089 C21.667,34.242 23.167,32.731 25.000,32.731 C26.833,32.731 28.333,34.242 28.333,36.089 L28.333,45.321 L30.000,45.321 L30.000,42.803 C30.000,42.299 30.333,41.964 30.833,41.964 L45.000,41.964 L45.000,19.303 ZM48.333,43.642 L45.750,43.642 L31.667,43.642 L31.667,45.321 L48.333,45.321 L48.333,45.321 L48.333,43.642 ZM35.000,27.696 L35.833,27.696 L35.833,22.660 C35.833,22.156 36.167,21.821 36.667,21.821 L40.000,21.821 C40.500,21.821 40.833,22.156 40.833,22.660 L40.833,27.696 L41.667,27.696 C42.167,27.696 42.500,28.032 42.500,28.535 C42.500,29.039 42.167,29.374 41.667,29.374 L40.000,29.374 L36.667,29.374 L35.000,29.374 C34.500,29.374 34.167,29.039 34.167,28.535 C34.167,28.032 34.500,27.696 35.000,27.696 ZM37.500,27.696 L39.167,27.696 L39.167,23.499 L37.500,23.499 L37.500,27.696 ZM35.000,37.767 L35.833,37.767 L35.833,32.731 C35.833,32.228 36.167,31.892 36.667,31.892 L40.000,31.892 C40.500,31.892 40.833,32.228 40.833,32.731 L40.833,37.767 L41.667,37.767 C42.167,37.767 42.500,38.103 42.500,38.606 C42.500,39.110 42.167,39.446 41.667,39.446 L40.000,39.446 L36.667,39.446 L35.000,39.446 C34.500,39.446 34.167,39.110 34.167,38.606 C34.167,38.103 34.500,37.767 35.000,37.767 ZM37.500,37.767 L39.167,37.767 L39.167,33.571 L37.500,33.571 L37.500,37.767 ZM28.333,29.374 L26.667,29.374 L23.333,29.374 L21.667,29.374 C21.167,29.374 20.833,29.039 20.833,28.535 C20.833,28.032 21.167,27.696 21.667,27.696 L22.500,27.696 L22.500,22.660 C22.500,22.156 22.833,21.821 23.333,21.821 L26.667,21.821 C27.167,21.821 27.500,22.156 27.500,22.660 L27.500,27.696 L28.333,27.696 C28.833,27.696 29.167,28.032 29.167,28.535 C29.167,29.039 28.833,29.374 28.333,29.374 ZM25.833,23.499 L24.167,23.499 L24.167,27.696 L25.833,27.696 L25.833,23.499 ZM15.000,39.446 L13.333,39.446 L10.000,39.446 L8.333,39.446 C7.833,39.446 7.500,39.110 7.500,38.606 C7.500,38.103 7.833,37.767 8.333,37.767 L9.167,37.767 L9.167,32.731 C9.167,32.228 9.500,31.892 10.000,31.892 L13.333,31.892 C13.833,31.892 14.167,32.228 14.167,32.731 L14.167,37.767 L15.000,37.767 C15.500,37.767 15.833,38.103 15.833,38.606 C15.833,39.110 15.500,39.446 15.000,39.446 ZM12.500,33.571 L10.833,33.571 L10.833,37.767 L12.500,37.767 L12.500,33.571 ZM15.000,29.374 L13.333,29.374 L10.000,29.374 L8.333,29.374 C7.833,29.374 7.500,29.039 7.500,28.535 C7.500,28.032 7.833,27.696 8.333,27.696 L9.167,27.696 L9.167,22.660 C9.167,22.156 9.500,21.821 10.000,21.821 L13.333,21.821 C13.833,21.821 14.167,22.156 14.167,22.660 L14.167,27.696 L15.000,27.696 C15.500,27.696 15.833,28.032 15.833,28.535 C15.833,29.039 15.500,29.374 15.000,29.374 ZM12.500,23.499 L10.833,23.499 L10.833,27.696 L12.500,27.696 L12.500,23.499 Z" class="cls-1"/>
</svg>
