<svg xmlns="http://www.w3.org/2000/svg" xmlns:xlink="http://www.w3.org/1999/xlink" preserveAspectRatio="xMidYMid" width="50" height="45" viewBox="0 0 50 45">
  <defs>
    <style>
      .cls-1 {
        fill: #fff;
        filter: url(#color-overlay-1);
        fill-rule: evenodd;
      }
    </style>

    <filter id="color-overlay-1" filterUnits="userSpaceOnUse">
      <feFlood flood-color="#fff"/>
      <feComposite operator="in" in2="SourceGraphic"/>
      <feBlend in2="SourceGraphic" result="solidFill"/>
    </filter>
  </defs>
  <path d="M43.333,38.329 L43.333,44.162 C43.333,44.495 43.167,44.829 42.833,44.912 C42.750,44.995 42.583,44.995 42.500,44.995 C42.250,44.995 42.083,44.912 41.917,44.745 L37.500,40.329 L33.083,44.745 C32.833,44.995 32.500,45.079 32.167,44.912 C31.833,44.829 31.667,44.495 31.667,44.162 L31.667,38.329 L-0.000,38.329 L-0.000,-0.000 L50.000,-0.000 L50.000,38.329 L43.333,38.329 ZM33.333,38.329 L33.333,42.162 L36.917,38.579 C37.083,38.413 37.250,38.329 37.500,38.329 C37.750,38.329 37.917,38.413 38.083,38.579 L41.667,42.162 L41.667,42.162 L41.667,38.329 L41.667,33.080 C39.167,34.579 35.833,34.579 33.333,33.080 L33.333,38.329 ZM34.323,31.685 C34.325,31.687 34.328,31.689 34.331,31.690 C34.362,31.707 34.395,31.723 34.426,31.739 C34.488,31.771 34.550,31.803 34.613,31.834 C34.794,31.921 34.979,31.999 35.167,32.070 C35.354,32.140 35.544,32.201 35.736,32.255 C35.832,32.281 35.929,32.306 36.026,32.328 C36.215,32.372 36.407,32.407 36.599,32.434 C36.613,32.435 36.627,32.437 36.642,32.439 C36.723,32.450 36.804,32.459 36.885,32.467 C36.927,32.471 36.968,32.473 37.009,32.476 C37.068,32.481 37.127,32.485 37.186,32.489 C37.290,32.493 37.395,32.496 37.500,32.496 C37.606,32.496 37.711,32.493 37.816,32.488 C37.867,32.486 37.919,32.482 37.970,32.478 C38.022,32.474 38.074,32.471 38.126,32.466 C38.186,32.460 38.247,32.453 38.307,32.445 C38.352,32.440 38.396,32.435 38.440,32.428 C38.496,32.421 38.552,32.411 38.609,32.402 C38.664,32.392 38.720,32.382 38.775,32.372 C38.813,32.365 38.851,32.357 38.889,32.349 C41.895,31.705 44.167,29.021 44.167,25.831 C44.167,22.164 41.167,19.164 37.500,19.164 C33.833,19.164 30.833,22.164 30.833,25.831 C30.833,28.348 32.248,30.552 34.323,31.685 ZM48.333,1.666 L1.667,1.666 L1.667,36.663 L31.667,36.663 L31.667,31.765 C30.126,30.251 29.167,28.148 29.167,25.830 C29.167,21.247 32.917,17.498 37.500,17.498 C42.083,17.498 45.833,21.247 45.833,25.830 C45.833,28.148 44.874,30.251 43.333,31.765 L43.333,36.663 L48.333,36.663 L48.333,36.663 L48.333,1.666 ZM45.833,18.331 C45.333,18.331 45.000,17.998 45.000,17.498 L45.000,16.664 C45.000,16.165 45.333,15.831 45.833,15.831 C46.333,15.831 46.667,16.165 46.667,16.664 L46.667,17.498 C46.667,17.998 46.333,18.331 45.833,18.331 ZM45.833,12.665 C45.333,12.665 45.000,12.332 45.000,11.832 L45.000,9.915 C45.000,9.415 45.333,9.082 45.833,9.082 C46.333,9.082 46.667,9.415 46.667,9.915 L46.667,11.832 C46.667,12.248 46.333,12.665 45.833,12.665 ZM45.833,5.832 C45.333,5.832 45.000,5.499 45.000,4.999 C44.500,4.999 44.167,4.665 44.167,4.166 C44.167,3.666 44.500,3.332 45.000,3.332 L46.667,3.332 L46.667,4.999 C46.667,5.499 46.333,5.832 45.833,5.832 ZM40.750,4.999 L39.083,4.999 C38.583,4.999 38.250,4.666 38.250,4.166 C38.250,3.666 38.583,3.332 39.083,3.332 L40.750,3.332 C41.250,3.332 41.583,3.666 41.583,4.166 C41.583,4.666 41.167,4.999 40.750,4.999 ZM34.750,4.999 L33.083,4.999 C32.583,4.999 32.250,4.666 32.250,4.166 C32.250,3.666 32.583,3.332 33.083,3.332 L34.750,3.332 C35.250,3.332 35.583,3.666 35.583,4.166 C35.583,4.666 35.250,4.999 34.750,4.999 ZM28.833,4.999 L27.167,4.999 C26.667,4.999 26.333,4.666 26.333,4.166 C26.333,3.666 26.667,3.332 27.167,3.332 L28.833,3.332 C29.333,3.332 29.667,3.666 29.667,4.166 C29.667,4.666 29.250,4.999 28.833,4.999 ZM22.833,4.999 L21.167,4.999 C20.667,4.999 20.333,4.666 20.333,4.166 C20.333,3.666 20.667,3.332 21.167,3.332 L22.833,3.332 C23.333,3.332 23.667,3.666 23.667,4.166 C23.667,4.666 23.333,4.999 22.833,4.999 ZM16.917,4.999 L15.250,4.999 C14.750,4.999 14.417,4.666 14.417,4.166 C14.417,3.666 14.750,3.332 15.250,3.332 L16.917,3.332 C17.417,3.332 17.750,3.666 17.750,4.166 C17.750,4.666 17.333,4.999 16.917,4.999 ZM10.917,4.999 L9.250,4.999 C8.750,4.999 8.417,4.666 8.417,4.166 C8.417,3.666 8.750,3.332 9.250,3.332 L10.917,3.332 C11.417,3.332 11.750,3.666 11.750,4.166 C11.750,4.666 11.417,4.999 10.917,4.999 ZM9.167,33.330 L10.833,33.330 C11.333,33.330 11.667,33.663 11.667,34.163 C11.667,34.663 11.333,34.996 10.833,34.996 L9.167,34.996 C8.667,34.996 8.333,34.663 8.333,34.163 C8.333,33.663 8.667,33.330 9.167,33.330 ZM5.000,34.996 L3.333,34.996 L3.333,33.330 C3.333,32.830 3.667,32.496 4.167,32.496 C4.667,32.496 5.000,32.830 5.000,33.330 C5.500,33.330 5.833,33.663 5.833,34.163 C5.833,34.663 5.500,34.996 5.000,34.996 ZM5.000,4.999 C5.000,5.499 4.667,5.832 4.167,5.832 C3.667,5.832 3.333,5.499 3.333,4.999 L3.333,3.332 L5.000,3.332 C5.500,3.332 5.833,3.666 5.833,4.166 C5.833,4.666 5.500,4.999 5.000,4.999 ZM4.167,8.415 C4.667,8.415 5.000,8.748 5.000,9.248 L5.000,10.998 C5.000,11.498 4.667,11.832 4.167,11.832 C3.667,11.832 3.333,11.498 3.333,10.998 L3.333,9.248 C3.333,8.748 3.667,8.415 4.167,8.415 ZM4.167,14.415 C4.667,14.415 5.000,14.748 5.000,15.248 L5.000,16.998 C5.000,17.498 4.667,17.831 4.167,17.831 C3.667,17.831 3.333,17.498 3.333,16.998 L3.333,15.248 C3.333,14.748 3.667,14.415 4.167,14.415 ZM4.167,20.414 C4.667,20.414 5.000,20.747 5.000,21.247 L5.000,22.997 C5.000,23.497 4.667,23.830 4.167,23.830 C3.667,23.830 3.333,23.497 3.333,22.997 L3.333,21.247 C3.333,20.747 3.667,20.414 4.167,20.414 ZM4.167,26.497 C4.667,26.497 5.000,26.830 5.000,27.330 L5.000,29.080 C5.000,29.497 4.667,29.913 4.167,29.913 C3.667,29.913 3.333,29.580 3.333,29.080 L3.333,27.330 C3.333,26.830 3.667,26.497 4.167,26.497 ZM15.000,33.330 L16.667,33.330 C17.167,33.330 17.500,33.663 17.500,34.163 C17.500,34.663 17.167,34.996 16.667,34.996 L15.000,34.996 C14.500,34.996 14.167,34.663 14.167,34.163 C14.167,33.663 14.500,33.330 15.000,33.330 ZM20.833,33.330 L22.500,33.330 C23.000,33.330 23.333,33.663 23.333,34.163 C23.333,34.663 23.000,34.996 22.500,34.996 L20.833,34.996 C20.333,34.996 20.000,34.663 20.000,34.163 C20.000,33.663 20.333,33.330 20.833,33.330 ZM26.667,33.330 L27.500,33.330 C28.000,33.330 28.333,33.663 28.333,34.163 C28.333,34.663 28.000,34.996 27.500,34.996 L26.667,34.996 C26.167,34.996 25.833,34.663 25.833,34.163 C25.833,33.663 26.167,33.330 26.667,33.330 ZM10.833,26.664 L26.667,26.664 C27.167,26.664 27.500,26.997 27.500,27.497 C27.500,27.997 27.167,28.330 26.667,28.330 L10.833,28.330 C10.333,28.330 10.000,27.997 10.000,27.497 C10.000,26.997 10.333,26.664 10.833,26.664 ZM10.833,20.831 L26.667,20.831 C27.167,20.831 27.500,21.164 27.500,21.664 C27.500,22.164 27.167,22.498 26.667,22.498 L10.833,22.498 C10.333,22.498 10.000,22.164 10.000,21.664 C10.000,21.164 10.333,20.831 10.833,20.831 ZM10.000,16.664 C10.000,16.165 10.333,15.831 10.833,15.831 L29.167,15.831 C29.667,15.831 30.000,16.165 30.000,16.664 C30.000,17.165 29.667,17.498 29.166,17.498 L10.833,17.498 C10.333,17.498 10.000,17.165 10.000,16.664 ZM10.000,11.665 C10.000,11.165 10.333,10.832 10.833,10.832 L39.167,10.832 C39.667,10.832 40.000,11.165 40.000,11.665 C40.000,12.165 39.667,12.498 39.167,12.498 L10.833,12.498 C10.333,12.498 10.000,12.165 10.000,11.665 Z" class="cls-1"/>
</svg>
