<svg xmlns="http://www.w3.org/2000/svg" xmlns:xlink="http://www.w3.org/1999/xlink" preserveAspectRatio="xMidYMid" width="24" height="24" viewBox="0 0 24 24">
  <path d="M23.600,24.000 C23.379,24.000 23.200,23.821 23.200,23.600 L23.200,10.400 L18.800,10.400 C18.579,10.400 18.400,10.220 18.400,9.999 C18.400,9.779 18.579,9.600 18.800,9.600 L23.200,9.600 L23.200,9.200 C23.200,8.979 23.379,8.800 23.600,8.800 C23.821,8.800 24.000,8.979 24.000,9.200 L24.000,23.600 C24.000,23.821 23.821,24.000 23.600,24.000 ZM17.999,7.600 C17.929,7.600 17.858,7.581 17.794,7.542 L12.000,4.066 L6.206,7.542 C6.017,7.656 5.770,7.595 5.657,7.406 C5.543,7.216 5.605,6.970 5.794,6.857 L11.600,3.374 L11.600,0.400 C11.600,0.179 11.779,-0.000 12.000,-0.000 L14.800,-0.000 C15.021,-0.000 15.200,0.179 15.200,0.400 L15.200,2.000 C15.200,2.221 15.021,2.400 14.800,2.400 L13.200,2.400 C12.979,2.400 12.800,2.221 12.800,2.000 C12.800,1.779 12.979,1.600 13.200,1.600 L14.400,1.600 L14.400,0.800 L12.400,0.800 L12.400,3.374 L18.206,6.857 C18.395,6.970 18.457,7.216 18.343,7.406 C18.268,7.530 18.135,7.600 17.999,7.600 ZM5.200,10.400 L0.800,10.400 L0.800,13.600 C0.800,13.821 0.621,14.000 0.400,14.000 C0.179,14.000 -0.000,13.821 -0.000,13.600 L-0.000,9.200 C-0.000,8.979 0.179,8.800 0.400,8.800 C0.621,8.800 0.800,8.979 0.800,9.200 L0.800,9.600 L5.200,9.600 C5.421,9.600 5.600,9.779 5.600,10.000 C5.600,10.221 5.421,10.400 5.200,10.400 ZM2.000,14.400 C3.977,14.400 4.000,19.548 4.000,19.600 C4.000,20.566 3.311,21.374 2.400,21.559 L2.400,23.600 C2.400,23.821 2.221,24.000 2.000,24.000 C1.779,24.000 1.600,23.821 1.600,23.600 L1.600,21.559 C0.688,21.374 -0.000,20.566 -0.000,19.600 C-0.000,19.548 0.023,14.400 2.000,14.400 ZM2.000,20.800 C2.662,20.800 3.200,20.261 3.200,19.600 C3.200,17.607 2.665,15.200 2.000,15.200 C1.335,15.200 0.800,17.607 0.800,19.600 C0.800,20.261 1.338,20.800 2.000,20.800 ZM2.800,13.600 C2.579,13.600 2.400,13.421 2.400,13.200 L2.400,12.400 C2.400,12.179 2.579,12.000 2.800,12.000 L4.400,12.000 C4.621,12.000 4.800,12.179 4.800,12.400 L4.800,14.800 C4.800,15.021 4.621,15.200 4.400,15.200 C4.179,15.200 4.000,15.021 4.000,14.800 L4.000,12.800 L3.200,12.800 L3.200,13.200 C3.200,13.421 3.021,13.600 2.800,13.600 ZM6.400,20.400 L6.400,8.800 C6.400,8.579 6.579,8.400 6.800,8.400 C7.021,8.400 7.200,8.579 7.200,8.800 L7.200,20.400 C7.200,20.621 7.021,20.800 6.800,20.800 C6.579,20.800 6.400,20.621 6.400,20.400 ZM10.800,10.400 L9.200,10.400 C8.979,10.400 8.800,10.221 8.800,10.000 L8.800,7.600 C8.800,7.379 8.979,7.200 9.200,7.200 L10.800,7.200 C11.021,7.200 11.200,7.379 11.200,7.600 L11.200,10.000 C11.200,10.221 11.021,10.400 10.800,10.400 ZM10.400,8.000 L9.600,8.000 L9.600,9.600 L10.400,9.600 L10.400,8.000 ZM11.200,14.800 C11.200,15.021 11.021,15.200 10.800,15.200 L9.200,15.200 C8.979,15.200 8.800,15.021 8.800,14.800 L8.800,14.800 L8.800,12.400 C8.800,12.179 8.979,12.000 9.200,12.000 L10.800,12.000 C11.021,12.000 11.200,12.179 11.200,12.400 L11.200,14.800 ZM10.400,12.800 L9.600,12.800 L9.600,14.400 L10.400,14.400 L10.400,12.800 ZM14.800,10.400 L13.200,10.400 C12.979,10.400 12.800,10.221 12.800,10.000 L12.800,7.600 C12.800,7.379 12.979,7.200 13.200,7.200 L14.800,7.200 C15.021,7.200 15.200,7.379 15.200,7.600 L15.200,10.000 C15.200,10.221 15.021,10.400 14.800,10.400 ZM14.400,8.000 L13.600,8.000 L13.600,9.600 L14.400,9.600 L14.400,8.000 ZM15.200,14.800 C15.200,15.021 15.021,15.200 14.800,15.200 L13.200,15.200 C12.979,15.200 12.800,15.021 12.800,14.800 L12.800,12.400 C12.800,12.179 12.979,12.000 13.200,12.000 L14.800,12.000 C15.021,12.000 15.200,12.179 15.200,12.400 L15.200,14.800 ZM14.400,12.800 L13.600,12.800 L13.600,14.400 L14.400,14.400 L14.400,12.800 ZM16.800,20.400 L16.800,8.400 C16.800,8.179 16.979,8.000 17.200,8.000 C17.421,8.000 17.600,8.179 17.600,8.400 L17.600,20.400 C17.600,20.621 17.421,20.800 17.200,20.800 C16.979,20.800 16.800,20.621 16.800,20.400 ZM19.200,22.000 C19.200,22.220 19.021,22.400 18.800,22.400 L5.200,22.400 C4.979,22.400 4.800,22.220 4.800,22.000 C4.800,21.779 4.979,21.600 5.200,21.600 L8.800,21.600 L8.800,17.600 L8.400,17.600 C8.179,17.600 8.000,17.421 8.000,17.200 C8.000,16.979 8.179,16.800 8.400,16.800 L15.600,16.800 C15.821,16.800 16.000,16.979 16.000,17.200 C16.000,17.421 15.821,17.600 15.600,17.600 L15.200,17.600 L15.200,21.600 L18.800,21.600 C19.021,21.600 19.200,21.779 19.200,22.000 ZM11.600,20.000 C11.379,20.000 11.200,19.821 11.200,19.600 C11.200,19.379 11.379,19.200 11.600,19.200 L11.600,17.600 L9.600,17.600 L9.600,21.600 L11.600,21.600 L11.600,20.000 ZM14.400,17.600 L12.400,17.600 L12.400,19.200 C12.621,19.200 12.800,19.379 12.800,19.600 C12.800,19.821 12.621,20.000 12.400,20.000 L12.400,21.600 L14.400,21.600 L14.400,17.600 ZM3.600,23.200 L20.400,23.200 C20.621,23.200 20.800,23.379 20.800,23.600 C20.800,23.821 20.621,24.000 20.400,24.000 L3.600,24.000 C3.379,24.000 3.200,23.821 3.200,23.600 C3.200,23.379 3.379,23.200 3.600,23.200 ZM21.200,15.600 L19.600,15.600 C19.379,15.600 19.200,15.420 19.200,15.200 L19.200,12.800 C19.200,12.579 19.379,12.400 19.600,12.400 L21.200,12.400 C21.421,12.400 21.600,12.579 21.600,12.800 L21.600,15.200 C21.600,15.420 21.421,15.600 21.200,15.600 ZM20.800,13.200 L20.000,13.200 L20.000,14.800 L20.800,14.800 L20.800,13.200 ZM19.200,20.000 L19.200,17.600 C19.200,17.379 19.379,17.200 19.600,17.200 L21.200,17.200 C21.421,17.200 21.600,17.379 21.600,17.600 L21.600,20.000 C21.600,20.220 21.421,20.400 21.200,20.400 L19.600,20.400 C19.379,20.400 19.200,20.220 19.200,20.000 ZM20.000,19.600 L20.800,19.600 L20.800,18.000 L20.000,18.000 L20.000,19.600 Z" class="cls-1"/>
</svg>
