<svg xmlns="http://www.w3.org/2000/svg" xmlns:xlink="http://www.w3.org/1999/xlink" preserveAspectRatio="xMidYMid" width="20" height="13" viewBox="0 0 20 13">
  <defs>
    <style>
      .cls-1 {
        fill: #e6e6e6;
        fill-rule: evenodd;
      }
    </style>
  </defs>
  <path d="M0.283,7.104 L6.231,12.712 C6.594,13.054 7.183,13.054 7.546,12.712 C7.909,12.370 7.909,11.815 7.546,11.472 L3.184,7.360 L19.071,7.360 C19.584,7.360 20.000,6.968 20.000,6.484 C20.000,6.000 19.584,5.608 19.071,5.608 L3.184,5.608 L7.546,1.495 C7.909,1.153 7.909,0.598 7.546,0.256 C7.364,0.085 7.126,-0.001 6.888,-0.001 C6.650,-0.001 6.413,0.085 6.231,0.256 L0.283,5.864 C-0.080,6.206 -0.080,6.762 0.283,7.104 Z" class="cls-1"/>
</svg>
