<svg xmlns="http://www.w3.org/2000/svg" xmlns:xlink="http://www.w3.org/1999/xlink" preserveAspectRatio="xMidYMid" width="50" height="50" viewBox="0 0 50 50">
  <defs>
    <style>
      .cls-1 {
        fill: #fff;
        filter: url(#color-overlay-1);
        fill-rule: evenodd;
      }
    </style>

    <filter id="color-overlay-1" filterUnits="userSpaceOnUse">
      <feFlood flood-color="#fff"/>
      <feComposite operator="in" in2="SourceGraphic"/>
      <feBlend in2="SourceGraphic" result="solidFill"/>
    </filter>
  </defs>
  <path d="M36.540,49.337 C26.784,52.026 16.696,46.295 14.008,36.539 C6.020,35.618 -0.006,28.850 -0.000,20.809 C0.006,12.070 7.094,4.991 15.832,4.998 C17.503,5.000 19.163,5.270 20.748,5.797 C22.826,2.196 26.673,-0.017 30.830,-0.002 C32.429,-0.008 34.012,0.316 35.479,0.950 C41.373,3.495 44.088,10.337 41.543,16.232 C45.358,18.671 48.135,22.437 49.338,26.803 C52.026,36.560 46.296,46.649 36.540,49.337 ZM15.832,6.665 C8.012,6.674 1.675,13.011 1.667,20.831 C1.693,27.783 6.744,33.696 13.605,34.809 C12.383,27.812 15.318,20.739 21.136,16.665 C22.090,15.985 23.110,15.403 24.179,14.927 C24.550,14.761 24.924,14.613 25.300,14.473 C25.414,14.430 25.527,14.393 25.641,14.353 C25.915,14.258 26.190,14.170 26.468,14.086 C26.588,14.051 26.710,14.015 26.832,13.981 C27.143,13.897 27.455,13.821 27.768,13.753 C27.844,13.736 27.920,13.716 27.997,13.700 C28.017,13.697 28.036,13.691 28.057,13.687 C28.036,13.652 28.013,13.616 27.992,13.580 C27.758,13.182 27.502,12.797 27.224,12.426 C27.195,12.388 27.169,12.348 27.141,12.310 C26.854,11.934 26.548,11.573 26.224,11.227 C26.161,11.158 26.098,11.089 26.033,11.021 C25.712,10.687 25.374,10.367 25.021,10.065 C24.957,10.010 24.890,9.958 24.824,9.904 C24.450,9.591 24.059,9.298 23.654,9.025 C22.780,8.440 21.841,7.956 20.856,7.586 C19.252,6.973 17.549,6.660 15.832,6.665 ZM30.830,1.664 C27.369,1.653 24.150,3.444 22.336,6.393 C22.368,6.407 22.400,6.426 22.431,6.440 C22.735,6.580 23.035,6.731 23.332,6.892 C23.421,6.941 23.510,6.989 23.599,7.040 C23.931,7.227 24.259,7.424 24.581,7.638 C26.781,9.105 28.579,11.097 29.814,13.435 C30.428,13.368 31.046,13.333 31.664,13.331 C34.601,13.306 37.498,14.019 40.089,15.404 C40.582,14.197 40.833,12.905 40.829,11.601 C40.812,6.096 36.335,1.647 30.830,1.664 ZM31.664,14.998 C30.926,14.996 30.189,15.046 29.458,15.149 C27.868,15.353 26.316,15.792 24.854,16.450 C23.886,16.882 22.963,17.410 22.100,18.026 C17.652,21.143 15.002,26.233 14.999,31.664 C14.996,32.984 15.153,34.299 15.467,35.581 L15.467,35.586 C17.257,43.077 23.963,48.354 31.664,48.331 C40.868,48.331 48.329,40.869 48.329,31.664 C48.329,22.460 40.868,14.998 31.664,14.998 ZM40.008,44.141 C33.124,48.749 23.809,46.903 19.202,40.018 C14.595,33.133 16.440,23.817 23.324,19.209 C24.440,18.454 25.655,17.857 26.935,17.435 C29.598,16.550 32.456,16.431 35.184,17.091 L35.190,17.091 L35.195,17.091 C36.504,17.404 37.763,17.896 38.936,18.554 L38.938,18.556 C41.024,19.713 42.804,21.350 44.131,23.333 C48.738,30.217 46.892,39.533 40.008,44.141 ZM38.121,20.009 C37.077,19.425 35.957,18.988 34.793,18.710 L34.783,18.710 C32.362,18.126 29.825,18.232 27.461,19.016 L27.455,19.016 C26.320,19.391 25.243,19.921 24.253,20.590 C20.552,23.065 18.331,27.223 18.332,31.676 C18.335,39.036 24.304,45.001 31.664,44.998 C36.512,44.998 40.978,42.366 43.326,38.125 C46.890,31.684 44.560,23.574 38.121,20.009 ZM35.830,28.331 C35.370,28.331 34.997,27.958 34.997,27.498 C34.997,25.657 33.504,24.164 31.664,24.164 C29.823,24.164 28.331,25.657 28.331,27.498 C28.331,29.339 29.823,30.831 31.664,30.831 C34.081,30.845 36.142,32.587 36.559,34.969 C37.036,37.689 35.217,40.280 32.497,40.756 L32.497,42.498 C32.497,42.958 32.124,43.331 31.664,43.331 C31.204,43.331 30.830,42.958 30.830,42.498 L30.830,40.756 C28.428,40.348 26.669,38.268 26.664,35.831 C26.664,35.371 27.037,34.998 27.497,34.998 C27.958,34.998 28.331,35.371 28.331,35.831 C28.331,37.672 29.823,39.165 31.664,39.165 C33.504,39.165 34.997,37.672 34.997,35.831 C34.997,33.991 33.504,32.498 31.664,32.498 C29.246,32.484 27.185,30.742 26.768,28.360 C26.292,25.640 28.111,23.049 30.830,22.573 L30.830,20.831 C30.830,20.371 31.204,19.998 31.664,19.998 C32.124,19.998 32.497,20.371 32.497,20.831 L32.497,22.573 C34.899,22.981 36.659,25.060 36.663,27.498 C36.663,27.958 36.290,28.331 35.830,28.331 ZM30.830,4.998 C29.802,4.994 28.787,5.233 27.867,5.692 L27.124,4.201 C28.275,3.625 29.544,3.327 30.830,3.331 C35.430,3.336 39.158,7.064 39.163,11.665 L37.496,11.665 C37.492,7.984 34.510,5.002 30.830,4.998 ZM19.695,12.476 L21.361,9.589 L22.804,10.422 L21.138,13.309 L19.695,12.476 ZM14.999,8.331 L16.665,8.331 L16.665,11.665 L14.999,11.665 L14.999,8.331 ZM8.862,10.424 L10.305,9.590 L11.971,12.477 L10.528,13.310 L8.862,10.424 ZM11.970,29.185 L10.303,32.072 L8.860,31.239 L10.526,28.352 L11.970,29.185 ZM4.592,26.360 L7.479,24.693 L8.312,26.137 L5.425,27.803 L4.592,26.360 ZM4.591,15.302 L5.425,13.859 L8.311,15.526 L7.478,16.969 L4.591,15.302 ZM6.666,21.665 L3.333,21.665 L3.333,19.998 L6.666,19.998 L6.666,21.665 Z" class="cls-1"/>
</svg>
